<?xml version="1.0" encoding="utf-8"?>
<!-- Generator: Adobe Illustrator 26.5.1, SVG Export Plug-In . SVG Version: 6.00 Build 0)  -->
<svg version="1.1" id="Capa_1" xmlns="http://www.w3.org/2000/svg" xmlns:xlink="http://www.w3.org/1999/xlink" x="0px" y="0px"
	 viewBox="0 0 1011.8 277" style="enable-background:new 0 0 1011.8 277;" xml:space="preserve">
<style type="text/css">
	.st0{fill:#DD0520;}
	.st1{fill:#494949;}
</style>
<g>
	<g>
		<g>
			<g>
				<path class="st0" d="M136.3,205.1c-29.8,0-54.1-24.3-54.1-54.1c0-29.8,24.3-54.1,54.1-54.1c5,0,9-4,9-9c0-5-4-9-9-9
					c-39.8,0-72.1,32.4-72.1,72.1c0,39.8,32.4,72.1,72.1,72.1c5,0,9-4,9-9C145.3,209.1,141.2,205.1,136.3,205.1z"/>
				<path class="st0" d="M209.1,151c0-3-2.3-5.5-5.2-5.6c0,0-7.7,0-7.8,0c-3.1,0-5.6,2.5-5.6,5.6c0,3,2.4,5.5,5.5,5.6l7.9,0
					C206.6,156.6,209.1,154,209.1,151z"/>
				<path class="st0" d="M175.2,89.6c-2.4-1.8-5.8-1.5-7.6,0.8c0,0-4.7,6.1-4.7,6.2c-1.9,2.4-1.4,5.9,1.1,7.8c2.4,1.8,5.9,1.4,7.7-1
					l4.8-6.3C178.1,95,177.5,91.4,175.2,89.6z"/>
				<path class="st0" d="M199.1,114.3c-1.5-2.6-4.7-3.7-7.3-2.2c0,0-6.7,3.8-6.8,3.8c-2.7,1.5-3.6,4.9-2.1,7.6
					c1.5,2.6,4.9,3.6,7.5,2.1l6.8-3.9C199.7,120.3,200.5,116.8,199.1,114.3z"/>
				<path class="st0" d="M175.3,212.4c-2.4,1.8-5.8,1.5-7.6-0.8c0,0-4.7-6.1-4.7-6.2c-1.9-2.4-1.4-5.9,1.1-7.8
					c2.4-1.8,5.9-1.4,7.7,1l4.8,6.3C178.2,207,177.7,210.6,175.3,212.4z"/>
				<path class="st0" d="M199.2,187.8c-1.5,2.6-4.7,3.7-7.3,2.2c0,0-6.7-3.8-6.8-3.8c-2.7-1.5-3.6-4.9-2.1-7.6
					c1.5-2.6,4.9-3.6,7.5-2.1l6.8,3.9C199.8,181.7,200.7,185.2,199.2,187.8z"/>
			</g>
			<g>
				<path class="st0" d="M136.7,186.7c-1.1,0-2.1-0.4-2.8-1.1c-0.7-0.7-1.1-1.7-1.1-2.7v-5.2c-3.1-0.2-5.9-0.7-8.4-1.5
					c-2.4-0.8-4.5-1.7-6.3-2.7c-1.2-0.7-1.9-1.6-2.2-2.7c-0.3-1.1-0.2-2.2,0.2-3.2c0.4-1,1.1-1.7,2.1-2.2c1-0.4,2.1-0.2,3.5,0.5
					c1.4,0.8,3.3,1.6,5.7,2.4c2.3,0.7,5.1,1.1,8.4,1.1c3.9,0,6.6-0.7,8.3-2c1.7-1.4,2.5-3.1,2.5-5.1c0-1.7-0.6-3.1-1.8-4.2
					c-1.2-1.1-3.3-2-6.3-2.6l-8.2-1.8c-9.3-2-13.9-6.9-13.9-14.6c0-4.3,1.5-7.9,4.4-10.9c3-3,6.9-4.7,11.9-5.4v-5.5
					c0-1.1,0.4-2,1.1-2.7c0.7-0.7,1.6-1.1,2.8-1.1c1.1,0,2,0.4,2.7,1.1c0.7,0.7,1.1,1.7,1.1,2.7v5.4c2.1,0.2,4.2,0.7,6.5,1.5
					c2.3,0.8,4.3,1.8,6,3.2c1,0.8,1.5,1.7,1.7,2.7c0.2,1,0,1.9-0.5,2.8c-0.5,0.8-1.2,1.4-2.2,1.7c-1,0.3-2.2,0-3.5-0.7
					c-1.5-0.9-3.2-1.6-5-2.1c-1.8-0.5-4.1-0.8-6.6-0.8c-3.3,0-5.9,0.7-7.7,2.2c-1.9,1.5-2.8,3.4-2.8,5.7c0,1.7,0.6,3.1,1.7,4.2
					c1.1,1.1,3.1,1.9,5.8,2.5l8.4,1.8c4.9,1.1,8.6,2.8,10.9,5.1c2.3,2.3,3.5,5.4,3.5,9.2c0,4.3-1.5,7.8-4.4,10.6
					c-3,2.7-6.8,4.5-11.5,5.2v5.5c0,1.1-0.4,2-1.1,2.7C138.7,186.3,137.8,186.7,136.7,186.7z"/>
			</g>
			<path class="st0" d="M147.4,50.1H126c-1.9,0-3.4,1.5-3.4,3.4v9.3c0,1.9,1.5,3.4,3.4,3.4h21.4c1.9,0,3.4-1.5,3.4-3.4v-9.3
				C150.8,51.7,149.3,50.1,147.4,50.1z"/>
		</g>
	</g>
	<g>
		<path class="st1" d="M286.5,199.1c-9.8,0-18.2-2-25.1-6c-7-4-12.3-9.8-16-17.2c-3.7-7.5-5.6-16.3-5.6-26.4c0-10.2,1.9-19,5.6-26.4
			c3.7-7.4,9-13.1,16-17.2c7-4,15.3-6,25.1-6c5.4,0,10.6,0.7,15.6,2.2c5,1.5,9.3,3.6,13,6.3c2,1.3,3.2,2.8,3.5,4.6
			c0.3,1.8,0,3.4-0.8,4.8c-0.9,1.4-2.1,2.4-3.8,2.8c-1.6,0.5-3.5,0-5.5-1.4c-3.1-2.3-6.5-4-10.1-5.1c-3.6-1.1-7.4-1.6-11.5-1.6
			c-10.4,0-18.4,3.2-23.9,9.6c-5.5,6.4-8.2,15.5-8.2,27.3c0,11.8,2.7,20.9,8.2,27.4c5.5,6.5,13.5,9.7,23.9,9.7c4,0,7.9-0.5,11.6-1.6
			c3.7-1.1,7.2-2.8,10.5-5.2c2-1.3,3.8-1.7,5.4-1.3c1.6,0.4,2.7,1.3,3.6,2.7c0.8,1.4,1.1,2.9,0.8,4.6c-0.3,1.7-1.2,3.1-2.9,4.3
			c-3.8,3-8.3,5.3-13.4,6.9C297.4,198.3,292.1,199.1,286.5,199.1z"/>
		<path class="st1" d="M341.4,198.8c-4.7,0-7-2.3-7-7v-54.9c0-4.7,2.2-7,6.7-7c4.5,0,6.7,2.3,6.7,7v5.9c1.8-4.1,4.6-7.3,8.3-9.5
			c3.7-2.2,8.2-3.5,13.5-3.8c3.4-0.3,5.2,1.6,5.5,5.5c0.4,4-1.6,6.2-5.9,6.6l-2.6,0.3c-12.2,1.2-18.3,7.5-18.3,18.8v31.2
			C348.4,196.5,346.1,198.8,341.4,198.8z"/>
		<path class="st1" d="M416.1,199.1c-11,0-19.6-3.1-26-9.3s-9.5-14.6-9.5-25.3c0-6.9,1.4-12.9,4.2-18.2c2.8-5.3,6.7-9.4,11.6-12.3
			c4.9-2.9,10.6-4.4,17-4.4c9.2,0,16.5,3,21.8,8.9c5.3,5.9,8,14,8,24.4c0,3.1-1.8,4.7-5.5,4.7h-43.7c1,13.9,8.4,20.9,22.1,20.9
			c2.7,0,5.6-0.3,8.7-1c3-0.7,6-1.9,8.8-3.8c1.9-1.1,3.6-1.5,5-1.2c1.4,0.3,2.4,1.1,3.1,2.3c0.6,1.2,0.8,2.6,0.3,4.1
			c-0.4,1.5-1.5,2.8-3.2,3.9c-3.1,2.1-6.8,3.7-10.9,4.7C423.8,198.6,419.9,199.1,416.1,199.1z M414.1,139.4
			c-5.8,0-10.3,1.8-13.7,5.4c-3.4,3.6-5.4,8.3-6.2,14.3h37.5c-0.3-6.2-1.9-11.1-4.9-14.5C423.7,141.1,419.5,139.4,414.1,139.4z"/>
		<path class="st1" d="M484,199.1c-5.9,0-11-1.4-15.5-4.2c-4.4-2.8-7.9-6.8-10.4-12c-2.5-5.2-3.7-11.4-3.7-18.5s1.2-13.3,3.7-18.5
			c2.5-5.2,5.9-9.2,10.3-12c4.4-2.8,9.6-4.3,15.5-4.3c5,0,9.5,1.1,13.5,3.3c3.9,2.2,6.9,5.2,8.8,8.9v-34.7c0-4.7,2.3-7,6.9-7
			c4.7,0,7,2.3,7,7v84.7c0,4.7-2.3,7-6.9,7c-4.6,0-6.9-2.3-6.9-7v-5.2c-2,3.8-5,6.9-8.9,9.1C493.5,198,489,199.1,484,199.1z
			 M487.5,188.4c5.7,0,10.3-2.1,13.7-6.2c3.5-4.1,5.2-10.1,5.2-17.9c0-7.8-1.7-13.7-5.2-17.8c-3.5-4.1-8.1-6.1-13.7-6.1
			c-5.8,0-10.4,2-13.9,6.1c-3.5,4.1-5.2,10-5.2,17.8c0,7.8,1.7,13.7,5.2,17.9C477.1,186.3,481.8,188.4,487.5,188.4z"/>
		<path class="st1" d="M546.4,115.9c-2.7,0-4.9-0.7-6.4-2.1c-1.5-1.4-2.3-3.3-2.3-5.8c0-5.2,2.9-7.8,8.7-7.8c5.8,0,8.7,2.6,8.7,7.8
			C555.1,113.3,552.2,115.9,546.4,115.9z M546.4,198.7c-4.6,0-6.9-2.5-6.9-7.6v-53.6c0-4.9,2.3-7.4,6.9-7.4c4.7,0,7,2.5,7,7.4v53.6
			C553.4,196.2,551.1,198.7,546.4,198.7z"/>
		<path class="st1" d="M606.7,199.1c-6.3,0-12.4-0.7-18.2-2.2c-5.8-1.5-10.9-3.7-15.2-6.6c-1.7-1.2-2.8-2.6-3.2-4.3
			c-0.4-1.7-0.2-3.2,0.5-4.7c0.7-1.4,1.7-2.4,3.2-3c1.4-0.5,3-0.2,4.9,1c4.1,2.7,8.5,4.6,13,5.8c4.6,1.2,9.6,1.9,15,1.9
			c7.8,0,13.5-1.4,17.2-4.2c3.7-2.8,5.6-6.4,5.6-10.9c0-3.7-1.3-6.6-4-8.7c-2.7-2.2-7.1-3.9-13.3-5.2l-14.7-3
			c-8.7-1.8-15.2-4.9-19.4-9.1c-4.3-4.2-6.4-9.9-6.4-17c0-5.8,1.5-10.8,4.6-15.2c3.1-4.4,7.3-7.8,12.8-10.2c5.5-2.4,11.8-3.6,19-3.6
			c5.7,0,11,0.7,16,2.2c5,1.5,9.5,3.7,13.4,6.7c1.6,1.1,2.5,2.4,2.7,4c0.3,1.6,0,3-0.7,4.3c-0.7,1.3-1.8,2.2-3.3,2.7
			c-1.5,0.5-3.2,0.1-5.1-1.1c-3.6-2.4-7.2-4.1-11-5.2c-3.8-1.1-7.8-1.6-12.2-1.6c-6.8,0-12.2,1.5-16.1,4.5c-4,3-6,7.1-6,12.1
			c0,3.8,1.2,6.9,3.7,9.2c2.5,2.3,6.6,4,12.4,5.2l14.6,3c9.2,1.9,16,4.9,20.5,8.9c4.5,4,6.7,9.4,6.7,16.1c0,5.7-1.5,10.6-4.5,14.8
			c-3,4.2-7.3,7.5-12.8,9.8C620.9,197.9,614.3,199.1,606.7,199.1z"/>
		<path class="st1" d="M665.5,198.8c-4.6,0-6.9-2.3-6.9-7v-54.9c0-4.7,2.2-7,6.7-7c4.5,0,6.7,2.3,6.7,7v4.8c2-3.8,4.8-6.8,8.4-8.9
			c3.6-2.1,7.7-3.2,12.5-3.2c10.3,0,16.9,4.5,19.9,13.5c2.1-4.2,5.1-7.5,9.1-9.9c3.9-2.4,8.4-3.6,13.5-3.6c15,0,22.5,9,22.5,26.9
			v35.3c0,4.7-2.3,7-7,7c-4.6,0-6.9-2.3-6.9-7v-34.6c0-5.7-1-9.8-3-12.5c-2-2.7-5.2-4-9.7-4c-5,0-9,1.8-11.9,5.3
			c-2.9,3.5-4.4,8.3-4.4,14.4v31.4c0,4.7-2.3,7-6.9,7c-4.7,0-7-2.3-7-7v-34.6c0-5.7-1-9.8-2.9-12.5c-1.9-2.7-5.1-4-9.6-4
			c-5,0-9,1.8-11.9,5.3c-2.9,3.5-4.3,8.3-4.3,14.4v31.4C672.5,196.5,670.2,198.8,665.5,198.8z"/>
		<path class="st1" d="M798.7,199.1c-4.7,0-8.8-0.9-12.5-2.7c-3.7-1.8-6.6-4.3-8.7-7.4c-2.2-3.1-3.2-6.6-3.2-10.6
			c0-4.9,1.3-8.8,3.8-11.7c2.5-2.8,6.7-4.9,12.5-6.2c5.8-1.3,13.7-1.9,23.6-1.9h4.7V155c0-5.2-1.1-9-3.3-11.3
			c-2.2-2.3-5.8-3.4-10.8-3.4c-2.9,0-6,0.4-9.1,1.1c-3.2,0.7-6.4,2-9.8,3.7c-1.9,0.9-3.5,1.1-4.7,0.4c-1.2-0.6-2.1-1.6-2.5-3
			c-0.5-1.4-0.4-2.8,0.1-4.3c0.5-1.5,1.7-2.6,3.4-3.3c4-1.8,8-3.2,11.9-4.1c3.9-0.9,7.6-1.3,11.1-1.3c9.2,0,15.9,2.2,20.3,6.5
			c4.4,4.4,6.6,11.1,6.6,20.4v35.3c0,4.7-2.2,7-6.5,7c-4.4,0-6.6-2.3-6.6-7v-5.1c-1.6,3.8-4.2,6.9-7.7,9.1
			C807.7,198,803.6,199.1,798.7,199.1z M801.5,189.2c4.9,0,9.1-1.7,12.4-5.2c3.3-3.5,4.9-7.9,4.9-13.2v-3.7h-4.5
			c-6.7,0-11.9,0.3-15.7,1c-3.8,0.6-6.5,1.7-8.1,3.2c-1.6,1.5-2.4,3.6-2.4,6.2c0,3.5,1.2,6.3,3.6,8.4
			C794,188.1,797.3,189.2,801.5,189.2z"/>
		<path class="st1" d="M858.1,198.8c-4.7,0-7-2.3-7-7v-54.9c0-4.7,2.2-7,6.7-7c4.5,0,6.7,2.3,6.7,7v5.9c1.8-4.1,4.6-7.3,8.3-9.5
			c3.7-2.2,8.2-3.5,13.5-3.8c3.4-0.3,5.2,1.6,5.5,5.5c0.4,4-1.6,6.2-5.9,6.6l-2.6,0.3c-12.2,1.2-18.3,7.5-18.3,18.8v31.2
			C865.1,196.5,862.7,198.8,858.1,198.8z"/>
		<path class="st1" d="M934.5,199.1c-8.4,0-14.7-2.2-18.8-6.5c-4.1-4.3-6.2-10.5-6.2-18.7v-32.4h-8.2c-3.8,0-5.8-1.8-5.8-5.4
			s1.9-5.4,5.8-5.4h8.2v-14.1c0-4.7,2.3-7,7-7c4.6,0,6.9,2.3,6.9,7v14.1h16.1c3.8,0,5.8,1.8,5.8,5.4s-1.9,5.4-5.8,5.4h-16.1v31.3
			c0,4.9,1,8.5,3.1,11c2.1,2.5,5.4,3.7,10.1,3.7c1.6,0,3.1-0.2,4.3-0.5c1.2-0.3,2.2-0.5,3.2-0.6c1,0,1.8,0.3,2.5,1
			c0.6,0.7,1,2,1,3.9c0,1.5-0.3,2.8-0.8,3.9c-0.5,1.1-1.4,1.9-2.7,2.3c-1.1,0.5-2.6,0.8-4.5,1.1C937.7,199,936,199.1,934.5,199.1z"
			/>
	</g>
</g>
</svg>
